<?xml version="1.0" encoding="utf-8"?>
<!-- Generator: Adobe Illustrator 15.0.0, SVG Export Plug-In . SVG Version: 6.00 Build 0)  -->
<!DOCTYPE svg PUBLIC "-//W3C//DTD SVG 1.1//EN" "http://www.w3.org/Graphics/SVG/1.1/DTD/svg11.dtd">
<svg version="1.1" id="Layer_1" xmlns="http://www.w3.org/2000/svg" xmlns:xlink="http://www.w3.org/1999/xlink" x="0px" y="0px"
	 width="13.606px" height="14.74px" viewBox="0 0 13.606 14.74" enable-background="new 0 0 13.606 14.74" xml:space="preserve">
<g>
	<g display="none">
		<path display="inline" fill="#1C1C1A" d="M8.24,11.202c-0.951,1.464-2.909,1.88-4.373,0.93c-1.464-0.951-1.88-2.909-0.93-4.373
			L8.24,11.202z"/>
		
			<rect x="4.092" y="6.531" transform="matrix(-0.8387 -0.5446 0.5446 -0.8387 4.0321 18.1688)" display="inline" fill="#1C1C1A" width="1.228" height="3.912"/>
		
			<rect x="6.24" y="7.926" transform="matrix(-0.8387 -0.5446 0.5446 -0.8387 7.2212 21.9024)" display="inline" fill="#1C1C1A" width="1.228" height="3.912"/>
		<path display="inline" fill="#1C1C1A" d="M10.617,7.542L5.314,4.098l1.295-1.994C7.067,1.4,8.01,1.2,8.714,1.657l2.75,1.786
			c0.704,0.458,0.904,1.4,0.447,2.105L10.617,7.542z"/>
		<path display="inline" fill="none" stroke="#231F20" stroke-width="0.761" stroke-miterlimit="10" d="M3.867,12.131
			c-1.231,1.896-1.68,2.485-2.866,1.715"/>
		<path display="inline" fill="none" stroke="#231F20" stroke-width="0.761" stroke-miterlimit="10" d="M10.089,2.55
			c1.231-1.896,1.331-2.412,2.517-1.642"/>
	</g>
	<g>
		<line fill="none" stroke="#1C1C1A" stroke-miterlimit="10" x1="6.803" y1="1.677" x2="6.803" y2="9.029"/>
		<path fill="none" stroke="#1C1C1A" stroke-miterlimit="10" d="M9.488,3.503c1.482,0.905,2.472,2.539,2.472,4.403
			c0,2.848-2.309,5.156-5.156,5.156s-5.156-2.309-5.156-5.156c0-1.874,0.999-3.513,2.494-4.417"/>
	</g>
</g>
</svg>
