<?xml version="1.0" encoding="utf-8"?>
<!-- Generator: Adobe Illustrator 17.0.0, SVG Export Plug-In . SVG Version: 6.00 Build 0)  -->
<!DOCTYPE svg PUBLIC "-//W3C//DTD SVG 1.1//EN" "http://www.w3.org/Graphics/SVG/1.1/DTD/svg11.dtd">
<svg version="1.1" xmlns="http://www.w3.org/2000/svg" xmlns:xlink="http://www.w3.org/1999/xlink" x="0px" y="0px" width="16px"
	 height="16px" viewBox="0 0 16 16" enable-background="new 0 0 16 16" xml:space="preserve">
<g id="Layer_1">
</g>
<g id="Layer_2" display="none">
	<path display="inline" fill="#333333" d="M8,0.5C3.857,0.5,0.5,3.856,0.5,8c0,4.142,3.357,7.5,7.5,7.5c4.142,0,7.5-3.358,7.5-7.5
		C15.5,3.856,12.142,0.5,8,0.5 M11.707,9.707C11.512,9.901,11.256,10,11,10c-0.256,0-0.512-0.099-0.707-0.293L8,7.414L5.707,9.707
		c-0.391,0.391-1.023,0.391-1.414,0c-0.391-0.392-0.391-1.023,0-1.414l3-3c0.391-0.392,1.024-0.392,1.414,0l3,3
		C12.098,8.684,12.098,9.315,11.707,9.707"/>
</g>
<g id="Layer_3">
	<path fill="#333333" d="M8,0.5C3.857,0.5,0.5,3.857,0.5,8s3.357,7.5,7.5,7.5c4.142,0,7.5-3.357,7.5-7.5S12.142,0.5,8,0.5
		 M11.707,7.707l-3,3C8.512,10.901,8.256,11,8,11c-0.256,0-0.512-0.099-0.707-0.293l-3-3c-0.391-0.392-0.391-1.023,0-1.414
		c0.391-0.392,1.024-0.392,1.414,0L8,8.586l2.293-2.293c0.391-0.392,1.024-0.392,1.414,0C12.098,6.684,12.098,7.315,11.707,7.707"/>
</g>
</svg>
